<?xml version="1.0" standalone="no"?><!DOCTYPE svg PUBLIC "-//W3C//DTD SVG 1.1//EN" "http://www.w3.org/Graphics/SVG/1.1/DTD/svg11.dtd"><svg t="1708353082789" class="icon" viewBox="0 0 1024 1024" version="1.1" xmlns="http://www.w3.org/2000/svg" p-id="10678" xmlns:xlink="http://www.w3.org/1999/xlink" width="200" height="200"><path d="M0 0m157.538462 0l708.923076 0q157.538462 0 157.538462 157.538462l0 708.923076q0 157.538462-157.538462 157.538462l-708.923076 0q-157.538462 0-157.538462-157.538462l0-708.923076q0-157.538462 157.538462-157.538462Z" fill="#66D4CF" p-id="10679"></path><path d="M839.128615 524.051692c-32.964923-159.035077-141.745231-258.126769-207.556923-268.524307-30.326154-4.804923-48.443077 5.080615-58.368 14.178461-24.260923 22.449231-22.370462 61.636923-20.598154 83.692308a110.198154 110.198154 0 0 1-3.347692-15.044923l-1.102769-16.068923-0.118154-1.811693L547.643077 196.923077h-49.624615v124.731077h-0.393847a290.579692 290.579692 0 0 1-5.001846 36.233846l0.275693-3.150769c1.772308-21.464615 5.12-61.400615-20.48-84.992-9.846154-9.137231-28.041846-19.022769-58.368-14.217846-65.811692 10.397538-174.592 109.489231-207.635693 268.878769-27.844923 145.604923-8.546462 242.530462 1.260308 267.618461l0.236308 0.59077c4.332308 11.145846 13.390769 34.264615 37.415384 40.763077 3.977846 1.063385 8.073846 1.575385 12.209231 1.575384 14.966154 0 31.310769-7.010462 49.427692-21.228308a303.812923 303.812923 0 0 1 81.408-39.227076c39.345231-11.185231 110.592-47.931077 98.776616-106.771693-5.395692-26.939077-11.657846-65.496615-3.66277-89.324307 0.236308-0.669538 5.750154-16.187077 12.012308-37.218462 2.875077-9.649231 5.632-28.16-1.024-77.863385l7.955692-10.555077c8.388923-9.531077 12.996923-20.558769 18.786462-32.059076 4.371692 10.515692 9.688615 20.637538 15.911385 30.208l7.640615 10.712615c-2.756923 24.064-2.244923 55.296 5.435077 79.872 6.459077 20.558769 11.579077 35.84 11.815385 36.470154 8.113231 24.260923 1.890462 62.818462-3.544616 89.757538-11.815385 58.840615 59.470769 95.586462 98.776616 106.732308a303.576615 303.576615 0 0 1 81.408 39.266461c18.116923 14.217846 34.422154 21.267692 49.467076 21.267693 4.096 0 8.192-0.551385 12.169847-1.614769 24.024615-6.498462 33.083077-29.617231 37.415384-40.763077l0.236308-0.59077c9.846154-25.088 29.144615-122.013538 1.181538-267.972923z m-401.014153-13.666461c-26.702769 21.582769-41.590154 38.203077-41.55077 85.385846a40.96 40.96 0 0 1-0.512 7.601231c-2.008615 7.640615-7.758769 20.125538-24.024615 20.755692-22.409846-0.787692-24.812308-19.692308-25.048615-25.048615-0.590769-73.412923 27.411692-101.060923 61.203692-128.157539 0.275692-0.196923 23.591385-15.517538 36.706461 2.363077 14.769231 20.086154-3.229538 32.964923-6.774153 37.100308z m230.124307 113.742769c-16.265846-0.590769-22.055385-13.115077-24.024615-20.755692a40.96 40.96 0 0 1-0.512-7.561846v-0.039385c0-47.143385-14.848-63.803077-41.511385-85.346462v-0.039384c-3.544615-4.135385-21.582769-17.014154-6.813538-37.139693 13.115077-17.841231 36.430769-2.520615 36.706461-2.363076 33.792 27.136 61.794462 54.744615 61.203693 128.157538-0.236308 5.435077-2.678154 24.300308-25.048616 25.088z" fill="#FFFFFF" p-id="10680"></path></svg>