<?xml version="1.0" standalone="no"?><!DOCTYPE svg PUBLIC "-//W3C//DTD SVG 1.1//EN" "http://www.w3.org/Graphics/SVG/1.1/DTD/svg11.dtd"><svg t="1708352889947" class="icon" viewBox="0 0 1024 1024" version="1.1" xmlns="http://www.w3.org/2000/svg" p-id="7223" xmlns:xlink="http://www.w3.org/1999/xlink" width="200" height="200"><path d="M14.485854 516.445659c0-275.880585 223.63161-499.512195 499.512195-499.512196s499.512195 223.63161 499.512195 499.512196c0 275.85561-223.63161 499.512195-499.512195 499.512195s-499.512195-223.656585-499.512195-499.512195z" fill="#27C8BA" opacity=".08" p-id="7224"></path><path d="M547.315512 327.45522a22.478049 22.478049 0 0 1 22.478049 22.478048v110.741854h110.716878a22.478049 22.478049 0 0 1 0 44.956098h-133.194927a22.478049 22.478049 0 0 1-22.478049-22.478049V349.908293a22.478049 22.478049 0 0 1 22.478049-22.478049zM325.032585 549.738146a22.478049 22.478049 0 0 1 22.478049-22.478048h133.194927a22.478049 22.478049 0 0 1 22.478049 22.478048v133.219903a22.478049 22.478049 0 0 1-44.956098 0V572.19122h-110.716878a22.478049 22.478049 0 0 1-22.478049-22.478049z" fill="#27C8BA" p-id="7225"></path><path d="M729.71239 300.731317a22.478049 22.478049 0 0 1 0 31.793951l-166.51239 166.512391a22.478049 22.478049 0 0 1-31.793951-31.793952l166.51239-166.51239a22.478049 22.478049 0 0 1 31.793951 0zM496.590049 533.853659a22.478049 22.478049 0 0 1 0 31.793951l-166.51239 166.487414a22.478049 22.478049 0 0 1-31.793952-31.768975l166.512391-166.51239a22.478049 22.478049 0 0 1 31.793951 0z" fill="#27C8BA" p-id="7226"></path></svg>