<?xml version="1.0" standalone="no"?><!DOCTYPE svg PUBLIC "-//W3C//DTD SVG 1.1//EN" "http://www.w3.org/Graphics/SVG/1.1/DTD/svg11.dtd"><svg t="1708352934805" class="icon" viewBox="0 0 1024 1024" version="1.1" xmlns="http://www.w3.org/2000/svg" p-id="8288" xmlns:xlink="http://www.w3.org/1999/xlink" width="200" height="200"><path d="M14.485854 516.445659c0-275.880585 223.63161-499.512195 499.512195-499.512196s499.512195 223.63161 499.512195 499.512196c0 275.85561-223.63161 499.512195-499.512195 499.512195s-499.512195-223.656585-499.512195-499.512195z" fill="#27C8BA" opacity=".08" p-id="8289"></path><path d="M713.802927 472.313756a22.478049 22.478049 0 0 1-22.478049-22.478049v-110.716878h-110.716878a22.478049 22.478049 0 0 1 0-44.956097h133.219902a22.478049 22.478049 0 0 1 22.478049 22.478048v133.194927a22.478049 22.478049 0 0 1-22.478049 22.478049zM469.866146 716.250537a22.478049 22.478049 0 0 1-22.478048 22.478048h-133.219903a22.478049 22.478049 0 0 1-22.478049-22.478048v-133.219903a22.478049 22.478049 0 0 1 44.956098 0v110.741854h110.741854a22.478049 22.478049 0 0 1 22.478048 22.478049z" fill="#27C8BA" p-id="8290"></path><path d="M531.406049 499.037659a22.478049 22.478049 0 0 1 0-31.793952l166.51239-166.487414a22.478049 22.478049 0 0 1 31.793951 31.768975l-166.51239 166.512391a22.478049 22.478049 0 0 1-31.793951 0zM298.258732 732.135024a22.478049 22.478049 0 0 1 0-31.793951l166.487414-166.487414a22.478049 22.478049 0 1 1 31.793952 31.768975l-166.512391 166.51239a22.478049 22.478049 0 0 1-31.768975 0z" fill="#27C8BA" p-id="8291"></path></svg>