<?xml version="1.0" standalone="no"?><!DOCTYPE svg PUBLIC "-//W3C//DTD SVG 1.1//EN" "http://www.w3.org/Graphics/SVG/1.1/DTD/svg11.dtd"><svg t="1708352969819" class="icon" viewBox="0 0 1024 1024" version="1.1" xmlns="http://www.w3.org/2000/svg" p-id="9505" xmlns:xlink="http://www.w3.org/1999/xlink" width="200" height="200"><path d="M0 0h1024v1024H0z" fill="#FFFFFF" p-id="9506"></path><path d="M512 267.8272l40.548352-40.548352c90.048512-90.046464 236.044288-90.046464 326.0928 0 90.046464 90.048512 90.046464 236.044288 0 326.0928L512 920.0128 145.358848 553.371648c-90.046464-90.048512-90.046464-236.044288 0-326.0928 90.048512-90.046464 236.044288-90.046464 326.0928 0L512 267.8272z m-0.06144-81.156096c-112.44544-112.381952-294.705152-112.361472-407.126016 0.06144-112.443392 112.441344-112.443392 294.746112 0 407.187456l371.259392 371.259392c19.843072 19.843072 52.013056 19.843072 71.856128 0L919.189504 593.92c112.441344-112.441344 112.441344-294.746112 0-407.187456-112.443392-112.443392-294.74816-112.443392-407.189504 0l-0.06144-0.06144z" fill="#666666" p-id="9507"></path><path d="M495.802368 391.48544a28.669952 28.669952 0 0 1 24.754176 17.799168l68.040704 167.006208 14.798848-32.559104a28.676096 28.676096 0 0 1 26.103808-16.807936h135.493632c15.835136 0 28.672 12.836864 28.672 28.672s-12.836864 28.672-28.672 28.672h-117.03296l-34.701312 76.345344a28.674048 28.674048 0 0 1-52.656128-1.046528l-70.735872-173.627392-47.087616 83.714048a28.676096 28.676096 0 0 1-24.991744 14.614528h-160.899072c-15.835136 0-28.672-12.836864-28.672-28.672s12.836864-28.672 28.672-28.672h144.132096l67.9936-120.879104a28.674048 28.674048 0 0 1 26.78784-14.559232z" fill="#27C8BA" p-id="9508"></path></svg>