<?xml version="1.0" standalone="no"?><!DOCTYPE svg PUBLIC "-//W3C//DTD SVG 1.1//EN" "http://www.w3.org/Graphics/SVG/1.1/DTD/svg11.dtd"><svg t="1723091161541" class="icon" viewBox="0 0 1024 1024" version="1.1" xmlns="http://www.w3.org/2000/svg" p-id="1774" id="mx_n_1723091161542" xmlns:xlink="http://www.w3.org/1999/xlink" width="200" height="200"><path d="M528 526.72V172.8c0-77.44-67.2-140.8-149.44-140.8-82.56 0.32-149.44 63.68-149.44 140.8v353.6a264.192 264.192 0 0 0-85.44 83.84c-35.84 57.6-46.4 124.8-29.12 189.44 18.24 67.84 63.68 124.16 128.64 158.72 42.56 22.72 88.64 33.6 134.4 33.6 93.76 0 185.28-45.12 235.84-125.44 35.84-57.28 46.4-124.48 29.12-189.12-16.64-62.72-56.96-115.84-114.56-150.72z m31.04 305.6c-57.6 91.84-185.6 123.2-285.76 69.76-48.96-26.24-83.52-68.48-96.96-118.72-12.48-47.36-4.8-96.64 21.76-138.88 17.92-28.8 44.16-52.8 77.12-70.4l17.92-8.96V172.8c0-42.24 38.4-76.48 85.44-76.8 47.04 0 85.44 34.56 85.44 76.8v372.48l2.24 20.48 16.96 8.96c49.28 26.24 83.84 68.48 97.28 119.04 12.8 47.36 5.12 96.32-21.44 138.56zM660.16 196.16h225.6c17.6 0 31.68-14.4 31.68-32s-14.08-32-31.68-32h-225.6c-16.96 0.32-30.72 14.08-31.04 31.36-0.32 17.92 13.76 32.32 31.04 32.64zM885.76 282.88h-225.6c-16.96 0.32-30.4 14.08-30.72 31.04-0.32 17.6 13.44 32.32 30.72 32.96h225.6c17.6 0 31.68-14.4 31.68-32s-14.08-32-31.68-32zM885.76 424.64h-226.88a32 32 0 0 0 1.28 64h225.6c17.28 0 31.36-14.4 31.36-32a31.36 31.36 0 0 0-31.36-32z" p-id="1775" fill="#ffffff"></path><path d="M415.36 656.32V227.2a36.8 36.8 0 0 0-73.6 0v429.12a95.04 95.04 0 1 0 73.6 0z" p-id="1776" fill="#12DBDB"></path></svg>