<?xml version="1.0" standalone="no"?><!DOCTYPE svg PUBLIC "-//W3C//DTD SVG 1.1//EN" "http://www.w3.org/Graphics/SVG/1.1/DTD/svg11.dtd"><svg t="1709551856745" class="icon" viewBox="0 0 1024 1024" version="1.1" xmlns="http://www.w3.org/2000/svg" p-id="5155" xmlns:xlink="http://www.w3.org/1999/xlink"><path d="M688.008666 519.293103c-72.66395 0-136.566352-45.641503-145.164171-86.450954-5.8001-27.469632-2.952238-245.940388-0.85446-271.620257 1.497097-18.342764 17.683754-32.073486 35.912931-30.495548 18.342764 1.497097 31.992645 17.578354 30.495548 35.912931-2.611477 31.992645-3.52222 222.969211-0.438999 251.454985 5.051039 8.346085 34.399461 34.562167 80.049151 34.562167 18.400069 0 33.317827 14.918781 33.317827 33.317826 0 18.400069-14.918781 33.31885-33.317827 33.31885z m-79.846536-99.579973h0.170892-0.170892zM336.143806 515.608178c-18.400069 0-33.317827-14.918781-33.317826-33.317827 0-18.400069 14.918781-33.317827 33.317826-33.317826 49.244564 0 79.016635-25.574469 79.455634-33.700543 0.951675-17.578354-1.089821-89.525989-2.733251-147.33665-1.382487-48.610114-2.578732-90.583065-2.253321-104.769159 0.422625-18.400069 15.854083-33.090653 34.07405-32.54523 18.391882 0.422625 32.967856 15.675004 32.545231 34.07405-0.284479 12.470009 0.943488 55.638181 2.236947 101.345176 2.204202 77.593216 3.693112 133.972271 2.667759 152.84306-2.886747 53.336766-68.384483 96fff.724948-145.993049 96.724949z" fill="#fff" p-id="5156"></path><path d="M167.275771 893.397477c-12.274558 0-24.15105-2.14792-35.319413-6.490832-27.323299-10.614755-47.276746-33.505092-56.175417-64.447824-54.499242-189.374068 68.116377-469.128587 174.000939-544.468482 53.734832-38.21537 92.811826-22.011316 111.325481-8.972349 43.363623 30.568203 65.757656 86.882789 72.623018 182.606944 1.309832 18.359137-12.502755 34.302247-30.853705 35.620266-18.513656 1.252527-34.294061-12.494569-35.620266-30.853705-5.149277-71.939449-19.72525-115.409496-44.543495-132.905986-7.320733-5.182023-18.871813-2.187829-34.302247 8.79327-88.777953 63.170738-193.677071 315.090305-148.597363 471.748251 3.107781 10.793834 8.581446 17.781992 16.276708 20.775162 11.656481 4.498454 29.169343 0.780783 46.837748-10.045797 37.035498-22.670326 81.237209-22.670326 116.751051-22.670325 13.372565 0 32.94432 0 40.809451-2.334162 4.222161-13.755282 4.449335-53.425793 4.644787-85.752036 0.162706-28.462239 0.349971-60.72299 2.325975-94.846158 1.057075-18.375509 16.618493-32.561603 35.18843-31.333636 18.367323 1.065262 32.398898 16.822131 31.333636 35.189454-1.87879 32.382525-2.057869 63.724347-2.220575 91.372033-0.325411 56.622602-0.545422 94.024443-12.982685 118.394481-18.359137 35.945677-61.251016 35.945677-99.100043 35.945677-28.559453 0-60.933791 0-81.968873 12.868075-23.596418 14.446014-47.706535 21.807678-70.433142 21.807679zM856.729346 893.397477c-22.727631 0-46.837748-7.361665-70.427003-21.807679-21.035082-12.868075-53.40942-12.868075-81.97706-12.868075-37.84084 0-80.740906 0-99.091855-35.937491-12.340049-24.167422-12.542664-60.950164-12.84454-116.621091-0.154519-27.566846-0.325411-58.810431-2.245133-91.185792-1.089821-18.367323 12.925381-34.139541 31.292703-35.229362 18.107403-1.219781 34.131355 12.909008 35.221176 31.292703 2.033309 34.155914 2.212388 66.351174 2.358721 94.756108 0.179079 31.618115 0.390903 70.41063 4.50664 83.962273 7.874341 2.325975 27.445072 2.325975 40.801265 2.325975 35.513842 0 79.715553 0 116.759237 22.670326 17.667382 10.818393 35.156708 14.544251 46.821375 10.045797 7.695263-2.993171 13.177114-9.980305 16.284895-20.775163 45.080731-156.657946-59.81941-408.577512-148.597363-471.740064-15.454994-10.989285-27.006074-13.974269-34.310433-8.801456-24.988114 17.627473-39.61423 61.698201-44.673456 134.728494-1.2689 18.367323-17.228383 32.1707-35.538401 30.934546-18.359137-1.2689-32.211633-17.187451-30.934546-35.538401 6.719028-96.9204 29.15297-153.843854 72.752978-184.582949 18.530029-13.05534 57.59065-29.267581 111.325481 8.964163 105.891725 75.339896 228.491994 355.094414 174.009126 544.468482-8.915044 30.950919-28.860305 53.841256-56.19179 64.456011-11.159154 4.334725-23.034623 6.482645-35.302017 6.482645z" fill="#fff" p-id="5157"></path><path d="M704.672184 654.30096c-83.750449 0-147.011238-17.057491-191.871959-51.946093-44.99068 30.511921-114.457822 48.439222-193.31175 48.439223v-83.295078c92.413759 0 146.953933-28.128641 161.067372-47.040363l6.446829-8.635681c13.048177-17.477047 39.09132-17.910928 52.715619-0.880043l6.732331 8.416693c10.216689 12.770861 41.313941 51.644217 158.220535 51.644217v83.297125z" fill="#12DBDB" p-id="5158"></path></svg>