<?xml version="1.0" standalone="no"?><!DOCTYPE svg PUBLIC "-//W3C//DTD SVG 1.1//EN" "http://www.w3.org/Graphics/SVG/1.1/DTD/svg11.dtd"><svg t="1709467861374" class="icon" viewBox="0 0 1024 1024" version="1.1" xmlns="http://www.w3.org/2000/svg" p-id="4433" xmlns:xlink="http://www.w3.org/1999/xlink"><path d="M959 741.2V594.6c0-11-9-20-20-20H388.2v-14.7c0-99.4-80.6-180-180-180h-63.3V145.5c0-11-9-20-20-20H85.2c-11.2 0-20.3 9.2-20.3 20.3v750.8c0 0.2 0.1 0.3 0.3 0.3h79.3c0.2 0 0.3-0.1 0.3-0.3V787.1H879v111.4h80V741.2zM656.1 308.6h86.7v86.7c0 11 9 20 20 20h40c11 0 20-9 20-20v-86.7h86.7c11 0 20-9 20-20v-40c0-11-9-20-20-20h-86.7v-76.7c0-11-9-20-20-20h-40c-11 0-20 9-20 20v76.7h-86.7c-11 0-20 9-20 20v40c0 11.1 9 20 20 20z" fill="#fff" p-id="4434"></path></svg>