<?xml version="1.0" standalone="no"?><!DOCTYPE svg PUBLIC "-//W3C//DTD SVG 1.1//EN" "http://www.w3.org/Graphics/SVG/1.1/DTD/svg11.dtd"><svg t="1709467819140" class="icon" viewBox="0 0 1024 1024" version="1.1" xmlns="http://www.w3.org/2000/svg" p-id="4277" xmlns:xlink="http://www.w3.org/1999/xlink"><path d="M245.271963 388.612719a93.1 93.1 0 1 0 131.660985-131.665581 93.1 93.1 0 1 0-131.660985 131.665581Z" fill="#fff" p-id="4278"></path><path d="M959 741.2V594.6c0-11-9-20-20-20H144.9V145.5c0-11-9-20-20-20H85.2c-11.2 0-20.3 9.2-20.3 20.3v750.8c0 0.2 0.1 0.3 0.3 0.3h79.3c0.2 0 0.3-0.1 0.3-0.3V787.1H879v111.4h80V741.2z" fill="#fff" p-id="4279"></path><path d="M227.2 532.8h243c0.3 0 0.7 0.1 1 0.1h473.5c6.4 0 11.7-7.5 11.7-16.6v-14.6c0-91.1-52.6-165.6-116.8-165.6H471.3c-6.4 0-11.7 7.5-11.7 16.6V435H227.2c-6.6 0-12 3.7-12 8.2v81.3c0 4.6 5.4 8.3 12 8.3z" fill="#fff" p-id="4280"></path></svg>